<svg viewBox="0 0 24 20" 
  xmlns="http://www.w3.org/2000/svg" fill="currentColor">
  <path d="M23.954 2.57c-.885.388-1.83.653-2.825.774 1.013-.61 1.793-1.574 2.162-2.723-.95.556-2.005.96-3.127 1.185-.896-.96-2.173-1.56-3.59-1.56-2.718 0-4.92 2.204-4.92 4.918 0 .39.044.765.126 1.124C7.69 6.094 4.067 4.13 1.64 1.16c-.427.723-.666 1.562-.666 2.476 0 1.71.87 3.213 2.188 4.096-.807-.026-1.566-.248-2.228-.616v.06c0 2.386 1.693 4.375 3.946 4.828-.413.11-.85.17-1.296.17-.314 0-.615-.03-.916-.085.63 1.952 2.445 3.376 4.604 3.416-1.68 1.32-3.81 2.105-6.102 2.105-.39 0-.78-.022-1.17-.066 2.19 1.394 4.768 2.21 7.557 2.21 9.054 0 14-7.497 14-13.987 0-.21 0-.42-.016-.63.962-.69 1.8-1.56 2.46-2.548l-.046-.02z" />
</svg>